<svg version="1.2" xmlns="http://www.w3.org/2000/svg" viewBox="0 0 700 469" width="700" height="469"><style>.a{fill:#fff}</style><path class="a" d="m119 467h-107l106-244h97l-18 47-89 48 49.6 51z"/><path class="a" d="m313 224h135l-195 97 141 146h-120l-146-148z"/><path class="a" d="m213 3h92.7l-18.1 43.2-81.6 40.8 45.6 44.9-29.9 71.1h-92.7z"/><path class="a" d="m397 3h122l-174 87 108 113h-111l-115-115z"/><path class="a" d="m530 23l-154 75 86 84 19-71c0 0 33.2 2.3 58 30 13.5 15 26 28.8 26 70 0 0 2.4 44.5-50 80 0 0-39.6 27-87 27l15-67-155 79 118 116c0 0 43.4 7 99.2-6.8 19.1-4.7 39.6-11.8 60.2-22.4 37.5-19.2 56.9-32.9 83.6-60.8 20.8-21.7 37.3-54.7 43-82 4.3-20.6 4.3-31 5-51 0 0 0.6-24.2-9.7-56.4-5.4-16.6-13.6-35.3-26.4-54-24-35.2-64.1-70-130.9-89.6z"/></svg>