<svg version="1.2" xmlns="http://www.w3.org/2000/svg" viewBox="0 0 768 514" width="768" height="514"><style>.a{fill:#fff}</style><path class="a" d="m232 3l-224 507h167l202-507z"/><path class="a" d="m416 3l-186 103 117 121-222 112 171 171h191l-42-42 100-50-40-117 30-133 55-34-22-89 1-9 75-32z"/><path class="a" d="m579 24c0 0 56.4-1.5 117 61 0 0 67.6 58.3 67 169 0 0-4.5 91.6-67 149 0 0-40.8 43.4-101 64 0 0-61.5 22.3-128 24h-45l49-188c0 0 18.4 1.2 34-2 15.6-3.2 25.7-4.9 43-19 17.6-17.1 23.2-26 25-50-0.3-12.8-0.5-37.6-23-56-20.8-17.1-33-14.4-43-16l44-136z"/><path  d="m157 488h-107l106-244h97l-18 47-89 48 49.6 51z"/><path  d="m351 245h135l-195 97 141 146h-120l-146-148z"/><path  d="m251 24h92.7l-18.1 43.2-81.6 40.8 45.6 44.9-29.9 71.1h-92.7z"/><path  d="m435 24h122l-174 87 108 113h-111l-115-115z"/><path  d="m568 44l-154 75 86 84 19-71c0 0 33.2 2.3 58 30 13.5 15 26 28.8 26 70 0 0 2.4 44.5-50 80 0 0-39.6 27-87 27l15-67-155 79 118 116c0 0 43.4 7 99.2-6.8 19.1-4.7 39.6-11.8 60.2-22.4 37.5-19.2 56.9-32.9 83.6-60.8 20.8-21.7 37.3-54.7 43-82 4.3-20.6 4.3-31 5-51 0 0 0.6-24.2-9.7-56.4-5.4-16.6-13.6-35.3-26.4-54-24-35.2-64.1-70-130.9-89.6z"/></svg>